<svg width="1700" height="1088" viewBox="0 0 1700 1088" fill="none" xmlns="http://www.w3.org/2000/svg">
<path d="M1306.56 64C1306.56 99.3462 1335.22 128 1370.56 128H1622C1665.08 128 1700 162.922 1700 206V1010C1700 1053.08 1665.08 1088 1622 1088H495C451.922 1088 417 1053.08 417 1010V534.255C417 503.125 398.489 474.975 369.907 462.64L47.0931 323.324C18.5108 310.989 0 282.839 0 251.708V215.801C0 176.146 32.1464 144 71.8011 144C107.743 144 138.148 117.424 142.957 81.8047L144.879 67.565C150.103 28.8706 183.132 0 222.178 0H1242.56C1277.91 0 1306.56 28.6538 1306.56 64Z" fill="black"/>
</svg>
